<svg width="700" height="269" viewBox="0 0 700 269" fill="none" xmlns="http://www.w3.org/2000/svg">
<ellipse cx="80.4997" cy="78.125" rx="80.4997" ry="78.125" transform="matrix(-0.993692 0.112148 0.112148 0.993692 597.008 0.0283203)" fill="#502895"/>
<ellipse cx="80.4997" cy="78.125" rx="80.4997" ry="78.125" transform="matrix(-0.993692 0.112148 0.112148 0.993692 505.743 42.7012)" fill="#502895"/>
<ellipse cx="80.4997" cy="78.125" rx="80.4997" ry="78.125" transform="matrix(-0.993692 0.112148 0.112148 0.993692 445.068 89.3262)" fill="#502895"/>
<ellipse cx="80.4997" cy="78.125" rx="80.4997" ry="78.125" transform="matrix(-0.993692 0.112148 0.112148 0.993692 253.673 71.1504)" fill="#502895"/>
<ellipse cx="80.4997" cy="78.125" rx="80.4997" ry="78.125" transform="matrix(-0.993692 0.112148 0.112148 0.993692 589.853 95.1807)" fill="#502895"/>
<ellipse cx="80.4997" cy="78.125" rx="80.4997" ry="78.125" transform="matrix(-0.993692 0.112148 0.112148 0.993692 681.951 34.8438)" fill="#502895"/>
<ellipse cx="80.4997" cy="78.125" rx="80.4997" ry="78.125" transform="matrix(-0.993692 0.112148 0.112148 0.993692 237.665 46.1348)" fill="#502895"/>
<ellipse cx="80.4997" cy="78.125" rx="80.4997" ry="78.125" transform="matrix(-0.993692 0.112148 0.112148 0.993692 335.009 74)" fill="#502895"/>
<ellipse cx="80.4997" cy="78.125" rx="80.4997" ry="78.125" transform="matrix(-0.993692 0.112148 0.112148 0.993692 160.974 76.0664)" fill="#502895"/>
</svg>
