<svg width="127" height="109" viewBox="0 0 127 109" fill="none" xmlns="http://www.w3.org/2000/svg">
<path d="M0.5 10.54C0.5 5.01719 4.97715 0.540039 10.5 0.540039H111.496C116.821 0.540039 121.213 4.71316 121.483 10.0314L125.929 97.3193C126.233 103.294 121.258 108.197 115.289 107.807L9.84719 100.909C4.58901 100.565 0.5 96.1993 0.5 90.9299V10.54Z" fill="#6053B4"/>
<path d="M0.5 10.54C0.5 5.01719 4.97715 0.540039 10.5 0.540039H111.496C116.821 0.540039 121.213 4.71316 121.483 10.0314L125.929 97.3193C126.233 103.294 121.258 108.197 115.289 107.807L9.84719 100.909C4.58901 100.565 0.5 96.1993 0.5 90.9299V10.54Z" fill="#6053B4"/>
<path d="M39.2438 35.22C38.5438 35.22 37.8938 35.09 37.2938 34.83C36.6938 34.56 36.1838 34.195 35.7638 33.735C35.3438 33.275 35.0338 32.745 34.8338 32.145L36.3338 31.515C36.6038 32.205 36.9988 32.735 37.5188 33.105C38.0388 33.475 38.6388 33.66 39.3188 33.66C39.7188 33.66 40.0688 33.6 40.3688 33.48C40.6688 33.35 40.8988 33.17 41.0588 32.94C41.2288 32.71 41.3138 32.445 41.3138 32.145C41.3138 31.735 41.1988 31.41 40.9688 31.17C40.7388 30.93 40.3988 30.74 39.9488 30.6L37.8488 29.94C37.0088 29.68 36.3688 29.285 35.9288 28.755C35.4888 28.215 35.2688 27.585 35.2688 26.865C35.2688 26.235 35.4238 25.685 35.7338 25.215C36.0438 24.735 36.4688 24.36 37.0088 24.09C37.5588 23.82 38.1838 23.685 38.8838 23.685C39.5538 23.685 40.1638 23.805 40.7138 24.045C41.2638 24.275 41.7338 24.595 42.1238 25.005C42.5238 25.415 42.8138 25.89 42.9938 26.43L41.5238 27.075C41.3038 26.485 40.9588 26.03 40.4888 25.71C40.0288 25.39 39.4938 25.23 38.8838 25.23C38.5138 25.23 38.1888 25.295 37.9088 25.425C37.6288 25.545 37.4088 25.725 37.2488 25.965C37.0988 26.195 37.0238 26.465 37.0238 26.775C37.0238 27.135 37.1388 27.455 37.3688 27.735C37.5988 28.015 37.9488 28.225 38.4188 28.365L40.3688 28.98C41.2588 29.25 41.9288 29.64 42.3788 30.15C42.8288 30.65 43.0538 31.275 43.0538 32.025C43.0538 32.645 42.8888 33.195 42.5588 33.675C42.2388 34.155 41.7938 34.535 41.2238 34.815C40.6538 35.085 39.9938 35.22 39.2438 35.22ZM44.8757 35.04V26.925H46.5707V35.04H44.8757ZM44.8757 25.815V23.865H46.5707V25.815H44.8757ZM51.5525 35.22C50.7225 35.22 49.9925 35.015 49.3625 34.605C48.7425 34.195 48.3075 33.645 48.0575 32.955L49.3625 32.34C49.5825 32.8 49.8825 33.165 50.2625 33.435C50.6525 33.705 51.0825 33.84 51.5525 33.84C51.9525 33.84 52.2775 33.75 52.5275 33.57C52.7775 33.39 52.9025 33.145 52.9025 32.835C52.9025 32.635 52.8475 32.475 52.7375 32.355C52.6275 32.225 52.4875 32.12 52.3175 32.04C52.1575 31.96 51.9925 31.9 51.8225 31.86L50.5475 31.5C49.8475 31.3 49.3225 31 48.9725 30.6C48.6325 30.19 48.4625 29.715 48.4625 29.175C48.4625 28.685 48.5875 28.26 48.8375 27.9C49.0875 27.53 49.4325 27.245 49.8725 27.045C50.3125 26.845 50.8075 26.745 51.3575 26.745C52.0975 26.745 52.7575 26.93 53.3375 27.3C53.9175 27.66 54.3275 28.165 54.5675 28.815L53.2625 29.43C53.1025 29.04 52.8475 28.73 52.4975 28.5C52.1575 28.27 51.7725 28.155 51.3425 28.155C50.9725 28.155 50.6775 28.245 50.4575 28.425C50.2375 28.595 50.1275 28.82 50.1275 29.1C50.1275 29.29 50.1775 29.45 50.2775 29.58C50.3775 29.7 50.5075 29.8 50.6675 29.88C50.8275 29.95 50.9925 30.01 51.1625 30.06L52.4825 30.45C53.1525 30.64 53.6675 30.94 54.0275 31.35C54.3875 31.75 54.5675 32.23 54.5675 32.79C54.5675 33.27 54.4375 33.695 54.1775 34.065C53.9275 34.425 53.5775 34.71 53.1275 34.92C52.6775 35.12 52.1525 35.22 51.5525 35.22ZM59.7383 35.13C58.8883 35.13 58.2283 34.89 57.7583 34.41C57.2883 33.93 57.0533 33.255 57.0533 32.385V28.455H55.6283V26.925H55.8533C56.2333 26.925 56.5283 26.815 56.7383 26.595C56.9483 26.375 57.0533 26.075 57.0533 25.695V25.065H58.7483V26.925H60.5933V28.455H58.7483V32.31C58.7483 32.59 58.7933 32.83 58.8833 33.03C58.9733 33.22 59.1183 33.37 59.3183 33.48C59.5183 33.58 59.7783 33.63 60.0983 33.63C60.1783 33.63 60.2683 33.625 60.3683 33.615C60.4683 33.605 60.5633 33.595 60.6533 33.585V35.04C60.5133 35.06 60.3583 35.08 60.1883 35.1C60.0183 35.12 59.8683 35.13 59.7383 35.13ZM65.9709 35.22C65.1609 35.22 64.4409 35.035 63.8109 34.665C63.1909 34.285 62.7059 33.775 62.3559 33.135C62.0059 32.485 61.8309 31.76 61.8309 30.96C61.8309 30.14 62.0059 29.415 62.3559 28.785C62.7159 28.155 63.1959 27.66 63.7959 27.3C64.3959 26.93 65.0759 26.745 65.8359 26.745C66.4459 26.745 66.9909 26.85 67.4709 27.06C67.9509 27.27 68.3559 27.56 68.6859 27.93C69.0159 28.29 69.2659 28.705 69.4359 29.175C69.6159 29.645 69.7059 30.145 69.7059 30.675C69.7059 30.805 69.7009 30.94 69.6909 31.08C69.6809 31.22 69.6609 31.35 69.6309 31.47H63.1659V30.12H68.6709L67.8609 30.735C67.9609 30.245 67.9259 29.81 67.7559 29.43C67.5959 29.04 67.3459 28.735 67.0059 28.515C66.6759 28.285 66.2859 28.17 65.8359 28.17C65.3859 28.17 64.9859 28.285 64.6359 28.515C64.2859 28.735 64.0159 29.055 63.8259 29.475C63.6359 29.885 63.5609 30.385 63.6009 30.975C63.5509 31.525 63.6259 32.005 63.8259 32.415C64.0359 32.825 64.3259 33.145 64.6959 33.375C65.0759 33.605 65.5059 33.72 65.9859 33.72C66.4759 33.72 66.8909 33.61 67.2309 33.39C67.5809 33.17 67.8559 32.885 68.0559 32.535L69.4359 33.21C69.2759 33.59 69.0259 33.935 68.6859 34.245C68.3559 34.545 67.9559 34.785 67.4859 34.965C67.0259 35.135 66.5209 35.22 65.9709 35.22ZM71.3601 35.04V26.925H72.9801V28.68L72.7701 28.41C72.9401 27.86 73.2501 27.445 73.7001 27.165C74.1501 26.885 74.6651 26.745 75.2451 26.745C75.8951 26.745 76.4701 26.92 76.9701 27.27C77.4801 27.61 77.8201 28.065 77.9901 28.635L77.5101 28.68C77.7501 28.03 78.1151 27.545 78.6051 27.225C79.1051 26.905 79.6751 26.745 80.3151 26.745C80.8751 26.745 81.3801 26.875 81.8301 27.135C82.2901 27.395 82.6551 27.755 82.9251 28.215C83.1951 28.675 83.3301 29.2 83.3301 29.79V35.04H81.6351V30.255C81.6351 29.845 81.5601 29.5 81.4101 29.22C81.2701 28.93 81.0701 28.71 80.8101 28.56C80.5601 28.4 80.2651 28.32 79.9251 28.32C79.5851 28.32 79.2851 28.4 79.0251 28.56C78.7651 28.71 78.5601 28.93 78.4101 29.22C78.2601 29.51 78.1851 29.855 78.1851 30.255V35.04H76.5051V30.255C76.5051 29.845 76.4301 29.5 76.2801 29.22C76.1401 28.93 75.9401 28.71 75.6801 28.56C75.4301 28.4 75.1301 28.32 74.7801 28.32C74.4401 28.32 74.1401 28.4 73.8801 28.56C73.6201 28.71 73.4151 28.93 73.2651 29.22C73.1251 29.51 73.0551 29.855 73.0551 30.255V35.04H71.3601ZM87.5743 35.22C87.0243 35.22 86.5393 35.125 86.1193 34.935C85.7093 34.735 85.3893 34.465 85.1593 34.125C84.9293 33.775 84.8143 33.365 84.8143 32.895C84.8143 32.455 84.9093 32.06 85.0993 31.71C85.2993 31.36 85.6043 31.065 86.0143 30.825C86.4243 30.585 86.9393 30.415 87.5593 30.315L90.3793 29.85V31.185L87.8893 31.62C87.4393 31.7 87.1093 31.845 86.8993 32.055C86.6893 32.255 86.5843 32.515 86.5843 32.835C86.5843 33.145 86.6993 33.4 86.9293 33.6C87.1693 33.79 87.4743 33.885 87.8443 33.885C88.3043 33.885 88.7043 33.785 89.0443 33.585C89.3943 33.385 89.6643 33.12 89.8543 32.79C90.0443 32.45 90.1393 32.075 90.1393 31.665V29.58C90.1393 29.18 89.9893 28.855 89.6893 28.605C89.3993 28.345 89.0093 28.215 88.5193 28.215C88.0693 28.215 87.6743 28.335 87.3343 28.575C87.0043 28.805 86.7593 29.105 86.5993 29.475L85.1893 28.77C85.3393 28.37 85.5843 28.02 85.9243 27.72C86.2643 27.41 86.6593 27.17 87.1093 27C87.5693 26.83 88.0543 26.745 88.5643 26.745C89.2043 26.745 89.7693 26.865 90.2593 27.105C90.7593 27.345 91.1443 27.68 91.4143 28.11C91.6943 28.53 91.8343 29.02 91.8343 29.58V35.04H90.2143V33.57L90.5593 33.615C90.3693 33.945 90.1243 34.23 89.8243 34.47C89.5343 34.71 89.1993 34.895 88.8193 35.025C88.4493 35.155 88.0343 35.22 87.5743 35.22ZM57.3049 57.22C56.5249 57.22 55.8249 57.035 55.2049 56.665C54.5949 56.285 54.1099 55.775 53.7499 55.135C53.3999 54.495 53.2249 53.775 53.2249 52.975C53.2249 52.175 53.4049 51.455 53.7649 50.815C54.1249 50.175 54.6099 49.67 55.2199 49.3C55.8299 48.93 56.5199 48.745 57.2899 48.745C57.9399 48.745 58.5149 48.875 59.0149 49.135C59.5149 49.395 59.9099 49.755 60.1999 50.215L59.9449 50.605V45.685H61.6249V57.04H60.0199V55.39L60.2149 55.705C59.9349 56.195 59.5349 56.57 59.0149 56.83C58.4949 57.09 57.9249 57.22 57.3049 57.22ZM57.4699 55.645C57.9399 55.645 58.3599 55.53 58.7299 55.3C59.1099 55.07 59.4049 54.755 59.6149 54.355C59.8349 53.945 59.9449 53.485 59.9449 52.975C59.9449 52.465 59.8349 52.01 59.6149 51.61C59.4049 51.21 59.1099 50.895 58.7299 50.665C58.3599 50.435 57.9399 50.32 57.4699 50.32C56.9999 50.32 56.5749 50.435 56.1949 50.665C55.8149 50.895 55.5199 51.21 55.3099 51.61C55.0999 52.01 54.9949 52.465 54.9949 52.975C54.9949 53.485 55.0999 53.945 55.3099 54.355C55.5199 54.755 55.8099 55.07 56.1799 55.3C56.5599 55.53 56.9899 55.645 57.4699 55.645ZM67.4138 57.22C66.6038 57.22 65.8838 57.035 65.2538 56.665C64.6338 56.285 64.1488 55.775 63.7988 55.135C63.4488 54.485 63.2738 53.76 63.2738 52.96C63.2738 52.14 63.4488 51.415 63.7988 50.785C64.1588 50.155 64.6388 49.66 65.2388 49.3C65.8388 48.93 66.5188 48.745 67.2788 48.745C67.8888 48.745 68.4338 48.85 68.9138 49.06C69.3938 49.27 69.7988 49.56 70.1288 49.93C70.4588 50.29 70.7088 50.705 70.8788 51.175C71.0588 51.645 71.1488 52.145 71.1488 52.675C71.1488 52.805 71.1438 52.94 71.1338 53.08C71.1238 53.22 71.1038 53.35 71.0738 53.47H64.6088V52.12H70.1138L69.3038 52.735C69.4038 52.245 69.3688 51.81 69.1988 51.43C69.0388 51.04 68.7888 50.735 68.4488 50.515C68.1188 50.285 67.7288 50.17 67.2788 50.17C66.8288 50.17 66.4288 50.285 66.0788 50.515C65.7288 50.735 65.4588 51.055 65.2688 51.475C65.0788 51.885 65.0038 52.385 65.0438 52.975C64.9938 53.525 65.0688 54.005 65.2688 54.415C65.4788 54.825 65.7688 55.145 66.1388 55.375C66.5188 55.605 66.9488 55.72 67.4288 55.72C67.9188 55.72 68.3338 55.61 68.6738 55.39C69.0238 55.17 69.2988 54.885 69.4988 54.535L70.8788 55.21C70.7188 55.59 70.4688 55.935 70.1288 56.245C69.7988 56.545 69.3988 56.785 68.9288 56.965C68.4688 57.135 67.9638 57.22 67.4138 57.22ZM22.2331 79.04V67.865H23.6581L29.9281 76.52L29.2531 76.625V67.865H31.0081V79.04H29.5831L23.3581 70.325L24.0031 70.205V79.04H22.2331ZM37.072 79.22C36.292 79.22 35.577 79.035 34.927 78.665C34.287 78.295 33.777 77.79 33.397 77.15C33.017 76.51 32.827 75.785 32.827 74.975C32.827 74.155 33.017 73.43 33.397 72.8C33.777 72.16 34.287 71.66 34.927 71.3C35.567 70.93 36.282 70.745 37.072 70.745C37.872 70.745 38.587 70.93 39.217 71.3C39.857 71.66 40.362 72.16 40.732 72.8C41.112 73.43 41.302 74.155 41.302 74.975C41.302 75.795 41.112 76.525 40.732 77.165C40.352 77.805 39.842 78.31 39.202 78.68C38.562 79.04 37.852 79.22 37.072 79.22ZM37.072 77.645C37.552 77.645 37.977 77.53 38.347 77.3C38.717 77.07 39.007 76.755 39.217 76.355C39.437 75.945 39.547 75.485 39.547 74.975C39.547 74.465 39.437 74.01 39.217 73.61C39.007 73.21 38.717 72.895 38.347 72.665C37.977 72.435 37.552 72.32 37.072 72.32C36.602 72.32 36.177 72.435 35.797 72.665C35.427 72.895 35.132 73.21 34.912 73.61C34.702 74.01 34.597 74.465 34.597 74.975C34.597 75.485 34.702 75.945 34.912 76.355C35.132 76.755 35.427 77.07 35.797 77.3C36.177 77.53 36.602 77.645 37.072 77.645ZM46.3203 79.13C45.4703 79.13 44.8103 78.89 44.3403 78.41C43.8703 77.93 43.6353 77.255 43.6353 76.385V72.455H42.2103V70.925H42.4353C42.8153 70.925 43.1103 70.815 43.3203 70.595C43.5303 70.375 43.6353 70.075 43.6353 69.695V69.065H45.3303V70.925H47.1753V72.455H45.3303V76.31C45.3303 76.59 45.3753 76.83 45.4653 77.03C45.5553 77.22 45.7003 77.37 45.9003 77.48C46.1003 77.58 46.3603 77.63 46.6803 77.63C46.7603 77.63 46.8503 77.625 46.9503 77.615C47.0503 77.605 47.1453 77.595 47.2353 77.585V79.04C47.0953 79.06 46.9403 79.08 46.7703 79.1C46.6003 79.12 46.4503 79.13 46.3203 79.13ZM48.8894 79.04V70.925H50.5844V79.04H48.8894ZM48.8894 69.815V67.865H50.5844V69.815H48.8894ZM53.4812 79.04V72.455H51.9812V70.925H53.4812V70.505C53.4812 69.895 53.6062 69.385 53.8562 68.975C54.1062 68.555 54.4512 68.235 54.8912 68.015C55.3412 67.795 55.8562 67.685 56.4362 67.685C56.5462 67.685 56.6712 67.695 56.8112 67.715C56.9512 67.725 57.0662 67.74 57.1562 67.76V69.23C57.0762 69.21 56.9862 69.2 56.8862 69.2C56.7862 69.19 56.7062 69.185 56.6462 69.185C56.1962 69.185 55.8362 69.29 55.5662 69.5C55.2962 69.7 55.1612 70.035 55.1612 70.505V70.925H59.0462V72.455H55.1612V79.04H53.4812ZM58.2512 79.04V70.925H59.9312V79.04H58.2512ZM65.5764 79.22C64.7664 79.22 64.0464 79.035 63.4164 78.665C62.7964 78.285 62.3014 77.775 61.9314 77.135C61.5714 76.495 61.3914 75.77 61.3914 74.96C61.3914 74.16 61.5714 73.44 61.9314 72.8C62.2914 72.16 62.7864 71.66 63.4164 71.3C64.0464 70.93 64.7664 70.745 65.5764 70.745C66.1264 70.745 66.6414 70.845 67.1214 71.045C67.6014 71.235 68.0164 71.5 68.3664 71.84C68.7264 72.18 68.9914 72.575 69.1614 73.025L67.6764 73.715C67.5064 73.295 67.2314 72.96 66.8514 72.71C66.4814 72.45 66.0564 72.32 65.5764 72.32C65.1164 72.32 64.7014 72.435 64.3314 72.665C63.9714 72.885 63.6864 73.2 63.4764 73.61C63.2664 74.01 63.1614 74.465 63.1614 74.975C63.1614 75.485 63.2664 75.945 63.4764 76.355C63.6864 76.755 63.9714 77.07 64.3314 77.3C64.7014 77.53 65.1164 77.645 65.5764 77.645C66.0664 77.645 66.4914 77.52 66.8514 77.27C67.2214 77.01 67.4964 76.665 67.6764 76.235L69.1614 76.94C69.0014 77.37 68.7414 77.76 68.3814 78.11C68.0314 78.45 67.6164 78.72 67.1364 78.92C66.6564 79.12 66.1364 79.22 65.5764 79.22ZM73.1749 79.22C72.6249 79.22 72.1399 79.125 71.7199 78.935C71.3099 78.735 70.9899 78.465 70.7599 78.125C70.5299 77.775 70.4149 77.365 70.4149 76.895C70.4149 76.455 70.5099 76.06 70.6999 75.71C70.8999 75.36 71.2049 75.065 71.6149 74.825C72.0249 74.585 72.5399 74.415 73.1599 74.315L75.9799 73.85V75.185L73.4899 75.62C73.0399 75.7 72.7099 75.845 72.4999 76.055C72.2899 76.255 72.1849 76.515 72.1849 76.835C72.1849 77.145 72.2999 77.4 72.5299 77.6C72.7699 77.79 73.0749 77.885 73.4449 77.885C73.9049 77.885 74.3049 77.785 74.6449 77.585C74.9949 77.385 75.2649 77.12 75.4549 76.79C75.6449 76.45 75.7399 76.075 75.7399 75.665V73.58C75.7399 73.18 75.5899 72.855 75.2899 72.605C74.9999 72.345 74.6099 72.215 74.1199 72.215C73.6699 72.215 73.2749 72.335 72.9349 72.575C72.6049 72.805 72.3599 73.105 72.1999 73.475L70.7899 72.77C70.9399 72.37 71.1849 72.02 71.5249 71.72C71.8649 71.41 72.2599 71.17 72.7099 71C73.1699 70.83 73.6549 70.745 74.1649 70.745C74.8049 70.745 75.3699 70.865 75.8599 71.105C76.3599 71.345 76.7449 71.68 77.0149 72.11C77.2949 72.53 77.4349 73.02 77.4349 73.58V79.04H75.8149V77.57L76.1599 77.615C75.9699 77.945 75.7249 78.23 75.4249 78.47C75.1349 78.71 74.7999 78.895 74.4199 79.025C74.0499 79.155 73.6349 79.22 73.1749 79.22ZM83.2718 79.22C82.4618 79.22 81.7418 79.035 81.1118 78.665C80.4918 78.285 79.9968 77.775 79.6268 77.135C79.2668 76.495 79.0868 75.77 79.0868 74.96C79.0868 74.16 79.2668 73.44 79.6268 72.8C79.9868 72.16 80.4818 71.66 81.1118 71.3C81.7418 70.93 82.4618 70.745 83.2718 70.745C83.8218 70.745 84.3368 70.845 84.8168 71.045C85.2968 71.235 85.7118 71.5 86.0618 71.84C86.4218 72.18 86.6868 72.575 86.8568 73.025L85.3718 73.715C85.2018 73.295 84.9268 72.96 84.5468 72.71C84.1768 72.45 83.7518 72.32 83.2718 72.32C82.8118 72.32 82.3968 72.435 82.0268 72.665C81.6668 72.885 81.3818 73.2 81.1718 73.61C80.9618 74.01 80.8568 74.465 80.8568 74.975C80.8568 75.485 80.9618 75.945 81.1718 76.355C81.3818 76.755 81.6668 77.07 82.0268 77.3C82.3968 77.53 82.8118 77.645 83.2718 77.645C83.7618 77.645 84.1868 77.52 84.5468 77.27C84.9168 77.01 85.1918 76.665 85.3718 76.235L86.8568 76.94C86.6968 77.37 86.4368 77.76 86.0768 78.11C85.7268 78.45 85.3118 78.72 84.8318 78.92C84.3518 79.12 83.8318 79.22 83.2718 79.22ZM83.4368 82.565C83.1568 82.565 82.8618 82.52 82.5518 82.43C82.2418 82.34 81.9818 82.21 81.7718 82.04L82.1618 81.02C82.3118 81.14 82.4768 81.23 82.6568 81.29C82.8468 81.36 83.0318 81.395 83.2118 81.395C83.4318 81.395 83.6018 81.345 83.7218 81.245C83.8518 81.145 83.9168 81.01 83.9168 80.84C83.9168 80.64 83.7968 80.48 83.5568 80.36C83.3268 80.24 82.9668 80.155 82.4768 80.105L82.8068 78.89H83.8568L83.6918 79.535C84.2218 79.615 84.6268 79.78 84.9068 80.03C85.1968 80.28 85.3418 80.595 85.3418 80.975C85.3418 81.445 85.1668 81.825 84.8168 82.115C84.4668 82.415 84.0068 82.565 83.4368 82.565ZM90.8702 79.22C90.3202 79.22 89.8352 79.125 89.4152 78.935C89.0052 78.735 88.6852 78.465 88.4552 78.125C88.2252 77.775 88.1102 77.365 88.1102 76.895C88.1102 76.455 88.2052 76.06 88.3952 75.71C88.5952 75.36 88.9002 75.065 89.3102 74.825C89.7202 74.585 90.2352 74.415 90.8552 74.315L93.6752 73.85V75.185L91.1852 75.62C90.7352 75.7 90.4052 75.845 90.1952 76.055C89.9852 76.255 89.8802 76.515 89.8802 76.835C89.8802 77.145 89.9952 77.4 90.2252 77.6C90.4652 77.79 90.7702 77.885 91.1402 77.885C91.6002 77.885 92.0002 77.785 92.3402 77.585C92.6902 77.385 92.9602 77.12 93.1502 76.79C93.3402 76.45 93.4352 76.075 93.4352 75.665V73.58C93.4352 73.18 93.2852 72.855 92.9852 72.605C92.6952 72.345 92.3052 72.215 91.8152 72.215C91.3652 72.215 90.9702 72.335 90.6302 72.575C90.3002 72.805 90.0552 73.105 89.8952 73.475L88.4852 72.77C88.6352 72.37 88.8802 72.02 89.2202 71.72C89.5602 71.41 89.9552 71.17 90.4052 71C90.8652 70.83 91.3502 70.745 91.8602 70.745C92.5002 70.745 93.0652 70.865 93.5552 71.105C94.0552 71.345 94.4402 71.68 94.7102 72.11C94.9902 72.53 95.1302 73.02 95.1302 73.58V79.04H93.5102V77.57L93.8552 77.615C93.6652 77.945 93.4202 78.23 93.1202 78.47C92.8302 78.71 92.4952 78.895 92.1152 79.025C91.7452 79.155 91.3302 79.22 90.8702 79.22ZM92.8952 69.44C92.6252 69.44 92.4002 69.395 92.2202 69.305C92.0502 69.215 91.9002 69.115 91.7702 69.005C91.6502 68.895 91.5252 68.795 91.3952 68.705C91.2752 68.615 91.1302 68.57 90.9602 68.57C90.7902 68.57 90.6602 68.635 90.5702 68.765C90.4802 68.895 90.4352 69.1 90.4352 69.38H89.1002C89.1002 68.64 89.2652 68.095 89.5952 67.745C89.9252 67.385 90.3352 67.205 90.8252 67.205C91.1052 67.205 91.3302 67.25 91.5002 67.34C91.6802 67.42 91.8352 67.52 91.9652 67.64C92.0952 67.75 92.2202 67.85 92.3402 67.94C92.4702 68.02 92.6152 68.06 92.7752 68.06C92.9652 68.06 93.1002 67.99 93.1802 67.85C93.2702 67.71 93.3152 67.515 93.3152 67.265H94.6352C94.6352 67.965 94.4652 68.505 94.1252 68.885C93.7952 69.255 93.3852 69.44 92.8952 69.44ZM101.027 79.22C100.247 79.22 99.5321 79.035 98.8821 78.665C98.2421 78.295 97.7321 77.79 97.3521 77.15C96.9721 76.51 96.7821 75.785 96.7821 74.975C96.7821 74.155 96.9721 73.43 97.3521 72.8C97.7321 72.16 98.2421 71.66 98.8821 71.3C99.5221 70.93 100.237 70.745 101.027 70.745C101.827 70.745 102.542 70.93 103.172 71.3C103.812 71.66 104.317 72.16 104.687 72.8C105.067 73.43 105.257 74.155 105.257 74.975C105.257 75.795 105.067 76.525 104.687 77.165C104.307 77.805 103.797 78.31 103.157 78.68C102.517 79.04 101.807 79.22 101.027 79.22ZM101.027 77.645C101.507 77.645 101.932 77.53 102.302 77.3C102.672 77.07 102.962 76.755 103.172 76.355C103.392 75.945 103.502 75.485 103.502 74.975C103.502 74.465 103.392 74.01 103.172 73.61C102.962 73.21 102.672 72.895 102.302 72.665C101.932 72.435 101.507 72.32 101.027 72.32C100.557 72.32 100.132 72.435 99.7521 72.665C99.3821 72.895 99.0871 73.21 98.8671 73.61C98.6571 74.01 98.5521 74.465 98.5521 74.975C98.5521 75.485 98.6571 75.945 98.8671 76.355C99.0871 76.755 99.3821 77.07 99.7521 77.3C100.132 77.53 100.557 77.645 101.027 77.645Z" fill="white"/>
</svg>
