<svg width="127" height="109" viewBox="0 0 127 109" fill="none" xmlns="http://www.w3.org/2000/svg">
<path d="M0.5 10.28C0.5 4.75718 4.97715 0.280029 10.5 0.280029H111.496C116.821 0.280029 121.213 4.45315 121.483 9.77143L125.929 97.0593C126.233 103.034 121.258 107.937 115.289 107.547L9.84719 100.649C4.58901 100.305 0.5 95.9393 0.5 90.6699V10.28Z" fill="#6053B4"/>
<path d="M42.7582 46.28V44.855H43.3732C43.9032 44.855 44.3232 44.7 44.6332 44.39C44.9432 44.07 45.0982 43.64 45.0982 43.1V35.105H46.5832V43.07C46.5832 43.72 46.4482 44.285 46.1782 44.765C45.9182 45.245 45.5482 45.62 45.0682 45.89C44.5882 46.15 44.0232 46.28 43.3732 46.28H42.7582ZM52.7143 46.46C51.9343 46.46 51.2293 46.28 50.5993 45.92C49.9693 45.55 49.4693 45.045 49.0993 44.405C48.7293 43.765 48.5443 43.04 48.5443 42.23C48.5443 41.42 48.7243 40.7 49.0843 40.07C49.4543 39.44 49.9543 38.94 50.5843 38.57C51.2143 38.2 51.9243 38.015 52.7143 38.015C53.4943 38.015 54.1993 38.2 54.8293 38.57C55.4593 38.93 55.9543 39.425 56.3143 40.055C56.6843 40.685 56.8693 41.41 56.8693 42.23C56.8693 43.05 56.6793 43.78 56.2993 44.42C55.9193 45.05 55.4143 45.55 54.7843 45.92C54.1643 46.28 53.4743 46.46 52.7143 46.46ZM52.7143 45.11C53.2143 45.11 53.6643 44.985 54.0643 44.735C54.4743 44.485 54.7943 44.14 55.0243 43.7C55.2643 43.26 55.3843 42.77 55.3843 42.23C55.3843 41.68 55.2643 41.195 55.0243 40.775C54.7943 40.345 54.4743 40.005 54.0643 39.755C53.6643 39.495 53.2143 39.365 52.7143 39.365C52.2043 39.365 51.7443 39.495 51.3343 39.755C50.9343 40.005 50.6143 40.345 50.3743 40.775C50.1343 41.195 50.0143 41.68 50.0143 42.23C50.0143 42.77 50.1343 43.26 50.3743 43.7C50.6143 44.14 50.9343 44.485 51.3343 44.735C51.7443 44.985 52.2043 45.11 52.7143 45.11ZM62.5437 49.58C61.9737 49.58 61.4437 49.49 60.9537 49.31C60.4737 49.13 60.0587 48.88 59.7087 48.56C59.3687 48.25 59.1087 47.885 58.9287 47.465L60.2337 46.865C60.3737 47.245 60.6387 47.565 61.0287 47.825C61.4287 48.095 61.9287 48.23 62.5287 48.23C62.9887 48.23 63.4037 48.14 63.7737 47.96C64.1537 47.79 64.4537 47.53 64.6737 47.18C64.8937 46.84 65.0037 46.425 65.0037 45.935V44.12L65.2587 44.39C64.9787 44.94 64.5737 45.36 64.0437 45.65C63.5237 45.94 62.9487 46.085 62.3187 46.085C61.5587 46.085 60.8787 45.91 60.2787 45.56C59.6787 45.2 59.2087 44.715 58.8687 44.105C58.5287 43.485 58.3587 42.8 58.3587 42.05C58.3587 41.29 58.5287 40.605 58.8687 39.995C59.2087 39.385 59.6737 38.905 60.2637 38.555C60.8637 38.195 61.5437 38.015 62.3037 38.015C62.9337 38.015 63.5037 38.16 64.0137 38.45C64.5337 38.73 64.9487 39.12 65.2587 39.62L65.0487 39.995V38.195H66.4137V45.935C66.4137 46.635 66.2487 47.26 65.9187 47.81C65.5887 48.36 65.1287 48.79 64.5387 49.1C63.9587 49.42 63.2937 49.58 62.5437 49.58ZM62.4387 44.735C62.9187 44.735 63.3487 44.615 63.7287 44.375C64.1187 44.135 64.4287 43.815 64.6587 43.415C64.8887 43.005 65.0037 42.55 65.0037 42.05C65.0037 41.56 64.8887 41.11 64.6587 40.7C64.4287 40.29 64.1187 39.965 63.7287 39.725C63.3487 39.485 62.9187 39.365 62.4387 39.365C61.9487 39.365 61.5037 39.485 61.1037 39.725C60.7037 39.965 60.3887 40.29 60.1587 40.7C59.9387 41.1 59.8287 41.55 59.8287 42.05C59.8287 42.55 59.9387 43.005 60.1587 43.415C60.3887 43.815 60.6987 44.135 61.0887 44.375C61.4887 44.615 61.9387 44.735 62.4387 44.735ZM72.4164 46.46C71.6364 46.46 70.9314 46.28 70.3014 45.92C69.6714 45.55 69.1714 45.045 68.8014 44.405C68.4314 43.765 68.2464 43.04 68.2464 42.23C68.2464 41.42 68.4264 40.7 68.7864 40.07C69.1564 39.44 69.6564 38.94 70.2864 38.57C70.9164 38.2 71.6264 38.015 72.4164 38.015C73.1964 38.015 73.9014 38.2 74.5314 38.57C75.1614 38.93 75.6564 39.425 76.0164 40.055C76.3864 40.685 76.5714 41.41 76.5714 42.23C76.5714 43.05 76.3814 43.78 76.0014 44.42C75.6214 45.05 75.1164 45.55 74.4864 45.92C73.8664 46.28 73.1764 46.46 72.4164 46.46ZM72.4164 45.11C72.9164 45.11 73.3664 44.985 73.7664 44.735C74.1764 44.485 74.4964 44.14 74.7264 43.7C74.9664 43.26 75.0864 42.77 75.0864 42.23C75.0864 41.68 74.9664 41.195 74.7264 40.775C74.4964 40.345 74.1764 40.005 73.7664 39.755C73.3664 39.495 72.9164 39.365 72.4164 39.365C71.9064 39.365 71.4464 39.495 71.0364 39.755C70.6364 40.005 70.3164 40.345 70.0764 40.775C69.8364 41.195 69.7164 41.68 69.7164 42.23C69.7164 42.77 69.8364 43.26 70.0764 43.7C70.3164 44.14 70.6364 44.485 71.0364 44.735C71.4464 44.985 71.9064 45.11 72.4164 45.11ZM81.2859 46.46C80.4759 46.46 79.7709 46.26 79.1709 45.86C78.5709 45.46 78.1459 44.92 77.8959 44.24L79.0059 43.7C79.2359 44.18 79.5509 44.56 79.9509 44.84C80.3509 45.12 80.7959 45.26 81.2859 45.26C81.7259 45.26 82.0909 45.155 82.3809 44.945C82.6709 44.735 82.8159 44.46 82.8159 44.12C82.8159 43.88 82.7459 43.69 82.6059 43.55C82.4759 43.4 82.3159 43.285 82.1259 43.205C81.9359 43.115 81.7609 43.05 81.6009 43.01L80.3859 42.665C79.6559 42.455 79.1209 42.155 78.7809 41.765C78.4509 41.375 78.2859 40.92 78.2859 40.4C78.2859 39.92 78.4059 39.505 78.6459 39.155C78.8959 38.795 79.2309 38.515 79.6509 38.315C80.0809 38.115 80.5609 38.015 81.0909 38.015C81.8009 38.015 82.4359 38.195 82.9959 38.555C83.5659 38.915 83.9709 39.42 84.2109 40.07L83.0709 40.595C82.8909 40.175 82.6209 39.845 82.2609 39.605C81.9009 39.355 81.4959 39.23 81.0459 39.23C80.6359 39.23 80.3109 39.335 80.0709 39.545C79.8309 39.745 79.7109 40 79.7109 40.31C79.7109 40.54 79.7709 40.73 79.8909 40.88C80.0109 41.02 80.1559 41.13 80.3259 41.21C80.4959 41.28 80.6609 41.34 80.8209 41.39L82.1409 41.78C82.8009 41.97 83.3109 42.265 83.6709 42.665C84.0409 43.065 84.2259 43.545 84.2259 44.105C84.2259 44.555 84.1009 44.96 83.8509 45.32C83.6009 45.68 83.2559 45.96 82.8159 46.16C82.3759 46.36 81.8659 46.46 81.2859 46.46ZM26.6892 63.28V55.195H28.0842V63.28H26.6892ZM26.6892 53.905V52.105H28.0842V53.905H26.6892ZM30.2488 63.28V55.195H31.6138V56.77L31.3888 56.635C31.5888 56.125 31.9088 55.73 32.3488 55.45C32.7988 55.16 33.3238 55.015 33.9238 55.015C34.5038 55.015 35.0188 55.145 35.4688 55.405C35.9288 55.665 36.2888 56.025 36.5488 56.485C36.8188 56.945 36.9538 57.465 36.9538 58.045V63.28H35.5438V58.495C35.5438 58.045 35.4638 57.665 35.3038 57.355C35.1438 57.045 34.9138 56.805 34.6138 56.635C34.3238 56.455 33.9888 56.365 33.6088 56.365C33.2288 56.365 32.8888 56.455 32.5888 56.635C32.2988 56.805 32.0688 57.05 31.8988 57.37C31.7288 57.68 31.6438 58.055 31.6438 58.495V63.28H30.2488ZM42.235 63.37C41.445 63.37 40.835 63.145 40.405 62.695C39.985 62.245 39.775 61.61 39.775 60.79V56.53H38.305V55.195H38.605C38.965 55.195 39.25 55.085 39.46 54.865C39.67 54.645 39.775 54.355 39.775 53.995V53.335H41.17V55.195H42.985V56.53H41.17V60.745C41.17 61.015 41.21 61.25 41.29 61.45C41.38 61.65 41.525 61.81 41.725 61.93C41.925 62.04 42.19 62.095 42.52 62.095C42.59 62.095 42.675 62.09 42.775 62.08C42.885 62.07 42.985 62.06 43.075 62.05V63.28C42.945 63.31 42.8 63.33 42.64 63.34C42.48 63.36 42.345 63.37 42.235 63.37ZM48.3975 63.46C47.6175 63.46 46.9225 63.275 46.3125 62.905C45.7025 62.535 45.2225 62.03 44.8725 61.39C44.5225 60.74 44.3475 60.015 44.3475 59.215C44.3475 58.405 44.5175 57.685 44.8575 57.055C45.2075 56.425 45.6775 55.93 46.2675 55.57C46.8675 55.2 47.5375 55.015 48.2775 55.015C48.8775 55.015 49.4075 55.125 49.8675 55.345C50.3375 55.555 50.7325 55.845 51.0525 56.215C51.3825 56.575 51.6325 56.99 51.8025 57.46C51.9825 57.92 52.0725 58.4 52.0725 58.9C52.0725 59.01 52.0625 59.135 52.0425 59.275C52.0325 59.405 52.0175 59.53 51.9975 59.65H45.3675V58.45H51.1875L50.5275 58.99C50.6175 58.47 50.5675 58.005 50.3775 57.595C50.1875 57.185 49.9075 56.86 49.5375 56.62C49.1675 56.38 48.7475 56.26 48.2775 56.26C47.8075 56.26 47.3775 56.38 46.9875 56.62C46.5975 56.86 46.2925 57.205 46.0725 57.655C45.8625 58.095 45.7775 58.62 45.8175 59.23C45.7775 59.82 45.8675 60.34 46.0875 60.79C46.3175 61.23 46.6375 61.575 47.0475 61.825C47.4675 62.065 47.9225 62.185 48.4125 62.185C48.9525 62.185 49.4075 62.06 49.7775 61.81C50.1475 61.56 50.4475 61.24 50.6775 60.85L51.8475 61.45C51.6875 61.82 51.4375 62.16 51.0975 62.47C50.7675 62.77 50.3725 63.01 49.9125 63.19C49.4625 63.37 48.9575 63.46 48.3975 63.46ZM53.8914 63.28V55.195H55.2564V56.68L55.1064 56.47C55.2964 56.01 55.5864 55.67 55.9764 55.45C56.3664 55.22 56.8414 55.105 57.4014 55.105H57.8964V56.425H57.1914C56.6214 56.425 56.1614 56.605 55.8114 56.965C55.4614 57.315 55.2864 57.815 55.2864 58.465V63.28H53.8914ZM61.5055 63.46C60.9755 63.46 60.5055 63.365 60.0955 63.175C59.6955 62.975 59.3805 62.705 59.1505 62.365C58.9205 62.015 58.8055 61.615 58.8055 61.165C58.8055 60.735 58.8955 60.35 59.0755 60.01C59.2655 59.66 59.5555 59.365 59.9455 59.125C60.3455 58.885 60.8455 58.715 61.4455 58.615L64.4455 58.12V59.29L61.7605 59.74C61.2405 59.83 60.8605 59.995 60.6205 60.235C60.3905 60.475 60.2755 60.77 60.2755 61.12C60.2755 61.45 60.4055 61.725 60.6655 61.945C60.9355 62.165 61.2705 62.275 61.6705 62.275C62.1805 62.275 62.6205 62.17 62.9905 61.96C63.3705 61.74 63.6655 61.445 63.8755 61.075C64.0955 60.705 64.2055 60.295 64.2055 59.845V57.79C64.2055 57.35 64.0405 56.995 63.7105 56.725C63.3905 56.445 62.9655 56.305 62.4355 56.305C61.9755 56.305 61.5655 56.425 61.2055 56.665C60.8555 56.895 60.5955 57.205 60.4255 57.595L59.2105 56.965C59.3605 56.595 59.6005 56.265 59.9305 55.975C60.2605 55.675 60.6455 55.44 61.0855 55.27C61.5255 55.1 61.9855 55.015 62.4655 55.015C63.0855 55.015 63.6305 55.135 64.1005 55.375C64.5705 55.605 64.9355 55.93 65.1955 56.35C65.4655 56.76 65.6005 57.24 65.6005 57.79V63.28H64.2355V61.75L64.4905 61.84C64.3205 62.16 64.0905 62.44 63.8005 62.68C63.5105 62.92 63.1705 63.11 62.7805 63.25C62.3905 63.39 61.9655 63.46 61.5055 63.46ZM70.902 63.37C70.112 63.37 69.502 63.145 69.072 62.695C68.652 62.245 68.442 61.61 68.442 60.79V56.53H66.972V55.195H67.272C67.632 55.195 67.917 55.085 68.127 54.865C68.337 54.645 68.442 54.355 68.442 53.995V53.335H69.837V55.195H71.652V56.53H69.837V60.745C69.837 61.015 69.877 61.25 69.957 61.45C70.047 61.65 70.192 61.81 70.392 61.93C70.592 62.04 70.857 62.095 71.187 62.095C71.257 62.095 71.342 62.09 71.442 62.08C71.552 62.07 71.652 62.06 71.742 62.05V63.28C71.612 63.31 71.467 63.33 71.307 63.34C71.147 63.36 71.012 63.37 70.902 63.37ZM73.5642 63.28V55.195H74.9592V63.28H73.5642ZM73.5642 53.905V52.105H74.9592V53.905H73.5642ZM79.3738 63.28L76.2088 55.195H77.7688L80.3038 62.035H79.7638L82.3138 55.195H83.8738L80.6938 63.28H79.3738ZM88.8154 63.46C88.0354 63.46 87.3304 63.28 86.7004 62.92C86.0704 62.55 85.5704 62.045 85.2004 61.405C84.8304 60.765 84.6454 60.04 84.6454 59.23C84.6454 58.42 84.8254 57.7 85.1854 57.07C85.5554 56.44 86.0554 55.94 86.6854 55.57C87.3154 55.2 88.0254 55.015 88.8154 55.015C89.5954 55.015 90.3004 55.2 90.9304 55.57C91.5604 55.93 92.0554 56.425 92.4154 57.055C92.7854 57.685 92.9704 58.41 92.9704 59.23C92.9704 60.05 92.7804 60.78 92.4004 61.42C92.0204 62.05 91.5154 62.55 90.8854 62.92C90.2654 63.28 89.5754 63.46 88.8154 63.46ZM88.8154 62.11C89.3154 62.11 89.7654 61.985 90.1654 61.735C90.5754 61.485 90.8954 61.14 91.1254 60.7C91.3654 60.26 91.4854 59.77 91.4854 59.23C91.4854 58.68 91.3654 58.195 91.1254 57.775C90.8954 57.345 90.5754 57.005 90.1654 56.755C89.7654 56.495 89.3154 56.365 88.8154 56.365C88.3054 56.365 87.8454 56.495 87.4354 56.755C87.0354 57.005 86.7154 57.345 86.4754 57.775C86.2354 58.195 86.1154 58.68 86.1154 59.23C86.1154 59.77 86.2354 60.26 86.4754 60.7C86.7154 61.14 87.0354 61.485 87.4354 61.735C87.8454 61.985 88.3054 62.11 88.8154 62.11ZM97.6848 63.46C96.8748 63.46 96.1698 63.26 95.5698 62.86C94.9698 62.46 94.5448 61.92 94.2948 61.24L95.4048 60.7C95.6348 61.18 95.9498 61.56 96.3498 61.84C96.7498 62.12 97.1948 62.26 97.6848 62.26C98.1248 62.26 98.4898 62.155 98.7798 61.945C99.0698 61.735 99.2148 61.46 99.2148 61.12C99.2148 60.88 99.1448 60.69 99.0048 60.55C98.8748 60.4 98.7148 60.285 98.5248 60.205C98.3348 60.115 98.1598 60.05 97.9998 60.01L96.7848 59.665C96.0548 59.455 95.5198 59.155 95.1798 58.765C94.8498 58.375 94.6848 57.92 94.6848 57.4C94.6848 56.92 94.8048 56.505 95.0448 56.155C95.2948 55.795 95.6298 55.515 96.0498 55.315C96.4798 55.115 96.9598 55.015 97.4898 55.015C98.1998 55.015 98.8348 55.195 99.3948 55.555C99.9648 55.915 100.37 56.42 100.61 57.07L99.4698 57.595C99.2898 57.175 99.0198 56.845 98.6598 56.605C98.2998 56.355 97.8948 56.23 97.4448 56.23C97.0348 56.23 96.7098 56.335 96.4698 56.545C96.2298 56.745 96.1098 57 96.1098 57.31C96.1098 57.54 96.1698 57.73 96.2898 57.88C96.4098 58.02 96.5548 58.13 96.7248 58.21C96.8948 58.28 97.0598 58.34 97.2198 58.39L98.5398 58.78C99.1998 58.97 99.7098 59.265 100.07 59.665C100.44 60.065 100.625 60.545 100.625 61.105C100.625 61.555 100.5 61.96 100.25 62.32C99.9998 62.68 99.6548 62.96 99.2148 63.16C98.7748 63.36 98.2648 63.46 97.6848 63.46Z" fill="white"/>
</svg>
