<svg width="126" height="108" viewBox="0 0 126 108" fill="none" xmlns="http://www.w3.org/2000/svg">
<path d="M0 10C0 4.47715 4.47715 0 10 0H110.996C116.321 0 120.713 4.17312 120.983 9.4914L125.429 96.7793C125.733 102.754 120.758 107.657 114.789 107.267L9.34719 100.369C4.08901 100.025 0 95.6593 0 90.3899V10Z" fill="#6053B4"/>
<path d="M0 10C0 4.47715 4.47715 0 10 0H110.996C116.321 0 120.713 4.17312 120.983 9.4914L125.429 96.7793C125.733 102.754 120.758 107.657 114.789 107.267L9.34719 100.369C4.08901 100.025 0 95.6593 0 90.3899V10Z" fill="#6053B4"/>
<path d="M38.7438 34.68C38.0438 34.68 37.3938 34.55 36.7938 34.29C36.1938 34.02 35.6838 33.655 35.2638 33.195C34.8438 32.735 34.5338 32.205 34.3338 31.605L35.8338 30.975C36.1038 31.665 36.4988 32.195 37.0188 32.565C37.5388 32.935 38.1388 33.12 38.8188 33.12C39.2188 33.12 39.5688 33.06 39.8688 32.94C40.1688 32.81 40.3988 32.63 40.5588 32.4C40.7288 32.17 40.8138 31.905 40.8138 31.605C40.8138 31.195 40.6988 30.87 40.4688 30.63C40.2388 30.39 39.8988 30.2 39.4488 30.06L37.3488 29.4C36.5088 29.14 35.8688 28.745 35.4288 28.215C34.9888 27.675 34.7688 27.045 34.7688 26.325C34.7688 25.695 34.9238 25.145 35.2338 24.675C35.5438 24.195 35.9688 23.82 36.5088 23.55C37.0588 23.28 37.6838 23.145 38.3838 23.145C39.0538 23.145 39.6638 23.265 40.2138 23.505C40.7638 23.735 41.2338 24.055 41.6238 24.465C42.0238 24.875 42.3138 25.35 42.4938 25.89L41.0238 26.535C40.8038 25.945 40.4588 25.49 39.9888 25.17C39.5288 24.85 38.9938 24.69 38.3838 24.69C38.0138 24.69 37.6888 24.755 37.4088 24.885C37.1288 25.005 36.9088 25.185 36.7488 25.425C36.5988 25.655 36.5238 25.925 36.5238 26.235C36.5238 26.595 36.6388 26.915 36.8688 27.195C37.0988 27.475 37.4488 27.685 37.9188 27.825L39.8688 28.44C40.7588 28.71 41.4288 29.1 41.8788 29.61C42.3288 30.11 42.5538 30.735 42.5538 31.485C42.5538 32.105 42.3888 32.655 42.0588 33.135C41.7388 33.615 41.2938 33.995 40.7238 34.275C40.1538 34.545 39.4938 34.68 38.7438 34.68ZM44.3757 34.5V26.385H46.0707V34.5H44.3757ZM44.3757 25.275V23.325H46.0707V25.275H44.3757ZM51.0525 34.68C50.2225 34.68 49.4925 34.475 48.8625 34.065C48.2425 33.655 47.8075 33.105 47.5575 32.415L48.8625 31.8C49.0825 32.26 49.3825 32.625 49.7625 32.895C50.1525 33.165 50.5825 33.3 51.0525 33.3C51.4525 33.3 51.7775 33.21 52.0275 33.03C52.2775 32.85 52.4025 32.605 52.4025 32.295C52.4025 32.095 52.3475 31.935 52.2375 31.815C52.1275 31.685 51.9875 31.58 51.8175 31.5C51.6575 31.42 51.4925 31.36 51.3225 31.32L50.0475 30.96C49.3475 30.76 48.8225 30.46 48.4725 30.06C48.1325 29.65 47.9625 29.175 47.9625 28.635C47.9625 28.145 48.0875 27.72 48.3375 27.36C48.5875 26.99 48.9325 26.705 49.3725 26.505C49.8125 26.305 50.3075 26.205 50.8575 26.205C51.5975 26.205 52.2575 26.39 52.8375 26.76C53.4175 27.12 53.8275 27.625 54.0675 28.275L52.7625 28.89C52.6025 28.5 52.3475 28.19 51.9975 27.96C51.6575 27.73 51.2725 27.615 50.8425 27.615C50.4725 27.615 50.1775 27.705 49.9575 27.885C49.7375 28.055 49.6275 28.28 49.6275 28.56C49.6275 28.75 49.6775 28.91 49.7775 29.04C49.8775 29.16 50.0075 29.26 50.1675 29.34C50.3275 29.41 50.4925 29.47 50.6625 29.52L51.9825 29.91C52.6525 30.1 53.1675 30.4 53.5275 30.81C53.8875 31.21 54.0675 31.69 54.0675 32.25C54.0675 32.73 53.9375 33.155 53.6775 33.525C53.4275 33.885 53.0775 34.17 52.6275 34.38C52.1775 34.58 51.6525 34.68 51.0525 34.68ZM59.2383 34.59C58.3883 34.59 57.7283 34.35 57.2583 33.87C56.7883 33.39 56.5533 32.715 56.5533 31.845V27.915H55.1283V26.385H55.3533C55.7333 26.385 56.0283 26.275 56.2383 26.055C56.4483 25.835 56.5533 25.535 56.5533 25.155V24.525H58.2483V26.385H60.0933V27.915H58.2483V31.77C58.2483 32.05 58.2933 32.29 58.3833 32.49C58.4733 32.68 58.6183 32.83 58.8183 32.94C59.0183 33.04 59.2783 33.09 59.5983 33.09C59.6783 33.09 59.7683 33.085 59.8683 33.075C59.9683 33.065 60.0633 33.055 60.1533 33.045V34.5C60.0133 34.52 59.8583 34.54 59.6883 34.56C59.5183 34.58 59.3683 34.59 59.2383 34.59ZM65.4709 34.68C64.6609 34.68 63.9409 34.495 63.3109 34.125C62.6909 33.745 62.2059 33.235 61.8559 32.595C61.5059 31.945 61.3309 31.22 61.3309 30.42C61.3309 29.6 61.5059 28.875 61.8559 28.245C62.2159 27.615 62.6959 27.12 63.2959 26.76C63.8959 26.39 64.5759 26.205 65.3359 26.205C65.9459 26.205 66.4909 26.31 66.9709 26.52C67.4509 26.73 67.8559 27.02 68.1859 27.39C68.5159 27.75 68.7659 28.165 68.9359 28.635C69.1159 29.105 69.2059 29.605 69.2059 30.135C69.2059 30.265 69.2009 30.4 69.1909 30.54C69.1809 30.68 69.1609 30.81 69.1309 30.93H62.6659V29.58H68.1709L67.3609 30.195C67.4609 29.705 67.4259 29.27 67.2559 28.89C67.0959 28.5 66.8459 28.195 66.5059 27.975C66.1759 27.745 65.7859 27.63 65.3359 27.63C64.8859 27.63 64.4859 27.745 64.1359 27.975C63.7859 28.195 63.5159 28.515 63.3259 28.935C63.1359 29.345 63.0609 29.845 63.1009 30.435C63.0509 30.985 63.1259 31.465 63.3259 31.875C63.5359 32.285 63.8259 32.605 64.1959 32.835C64.5759 33.065 65.0059 33.18 65.4859 33.18C65.9759 33.18 66.3909 33.07 66.7309 32.85C67.0809 32.63 67.3559 32.345 67.5559 31.995L68.9359 32.67C68.7759 33.05 68.5259 33.395 68.1859 33.705C67.8559 34.005 67.4559 34.245 66.9859 34.425C66.5259 34.595 66.0209 34.68 65.4709 34.68ZM70.8601 34.5V26.385H72.4801V28.14L72.2701 27.87C72.4401 27.32 72.7501 26.905 73.2001 26.625C73.6501 26.345 74.1651 26.205 74.7451 26.205C75.3951 26.205 75.9701 26.38 76.4701 26.73C76.9801 27.07 77.3201 27.525 77.4901 28.095L77.0101 28.14C77.2501 27.49 77.6151 27.005 78.1051 26.685C78.6051 26.365 79.1751 26.205 79.8151 26.205C80.3751 26.205 80.8801 26.335 81.3301 26.595C81.7901 26.855 82.1551 27.215 82.4251 27.675C82.6951 28.135 82.8301 28.66 82.8301 29.25V34.5H81.1351V29.715C81.1351 29.305 81.0601 28.96 80.9101 28.68C80.7701 28.39 80.5701 28.17 80.3101 28.02C80.0601 27.86 79.7651 27.78 79.4251 27.78C79.0851 27.78 78.7851 27.86 78.5251 28.02C78.2651 28.17 78.0601 28.39 77.9101 28.68C77.7601 28.97 77.6851 29.315 77.6851 29.715V34.5H76.0051V29.715C76.0051 29.305 75.9301 28.96 75.7801 28.68C75.6401 28.39 75.4401 28.17 75.1801 28.02C74.9301 27.86 74.6301 27.78 74.2801 27.78C73.9401 27.78 73.6401 27.86 73.3801 28.02C73.1201 28.17 72.9151 28.39 72.7651 28.68C72.6251 28.97 72.5551 29.315 72.5551 29.715V34.5H70.8601ZM87.0743 34.68C86.5243 34.68 86.0393 34.585 85.6193 34.395C85.2093 34.195 84.8893 33.925 84.6593 33.585C84.4293 33.235 84.3143 32.825 84.3143 32.355C84.3143 31.915 84.4093 31.52 84.5993 31.17C84.7993 30.82 85.1043 30.525 85.5143 30.285C85.9243 30.045 86.4393 29.875 87.0593 29.775L89.8793 29.31V30.645L87.3893 31.08C86.9393 31.16 86.6093 31.305 86.3993 31.515C86.1893 31.715 86.0843 31.975 86.0843 32.295C86.0843 32.605 86.1993 32.86 86.4293 33.06C86.6693 33.25 86.9743 33.345 87.3443 33.345C87.8043 33.345 88.2043 33.245 88.5443 33.045C88.8943 32.845 89.1643 32.58 89.3543 32.25C89.5443 31.91 89.6393 31.535 89.6393 31.125V29.04C89.6393 28.64 89.4893 28.315 89.1893 28.065C88.8993 27.805 88.5093 27.675 88.0193 27.675C87.5693 27.675 87.1743 27.795 86.8343 28.035C86.5043 28.265 86.2593 28.565 86.0993 28.935L84.6893 28.23C84.8393 27.83 85.0843 27.48 85.4243 27.18C85.7643 26.87 86.1593 26.63 86.6093 26.46C87.0693 26.29 87.5543 26.205 88.0643 26.205C88.7043 26.205 89.2693 26.325 89.7593 26.565C90.2593 26.805 90.6443 27.14 90.9143 27.57C91.1943 27.99 91.3343 28.48 91.3343 29.04V34.5H89.7143V33.03L90.0593 33.075C89.8693 33.405 89.6243 33.69 89.3243 33.93C89.0343 34.17 88.6993 34.355 88.3193 34.485C87.9493 34.615 87.5343 34.68 87.0743 34.68ZM56.8049 56.68C56.0249 56.68 55.3249 56.495 54.7049 56.125C54.0949 55.745 53.6099 55.235 53.2499 54.595C52.8999 53.955 52.7249 53.235 52.7249 52.435C52.7249 51.635 52.9049 50.915 53.2649 50.275C53.6249 49.635 54.1099 49.13 54.7199 48.76C55.3299 48.39 56.0199 48.205 56.7899 48.205C57.4399 48.205 58.0149 48.335 58.5149 48.595C59.0149 48.855 59.4099 49.215 59.6999 49.675L59.4449 50.065V45.145H61.1249V56.5H59.5199V54.85L59.7149 55.165C59.4349 55.655 59.0349 56.03 58.5149 56.29C57.9949 56.55 57.4249 56.68 56.8049 56.68ZM56.9699 55.105C57.4399 55.105 57.8599 54.99 58.2299 54.76C58.6099 54.53 58.9049 54.215 59.1149 53.815C59.3349 53.405 59.4449 52.945 59.4449 52.435C59.4449 51.925 59.3349 51.47 59.1149 51.07C58.9049 50.67 58.6099 50.355 58.2299 50.125C57.8599 49.895 57.4399 49.78 56.9699 49.78C56.4999 49.78 56.0749 49.895 55.6949 50.125C55.3149 50.355 55.0199 50.67 54.8099 51.07C54.5999 51.47 54.4949 51.925 54.4949 52.435C54.4949 52.945 54.5999 53.405 54.8099 53.815C55.0199 54.215 55.3099 54.53 55.6799 54.76C56.0599 54.99 56.4899 55.105 56.9699 55.105ZM66.9138 56.68C66.1038 56.68 65.3838 56.495 64.7538 56.125C64.1338 55.745 63.6488 55.235 63.2988 54.595C62.9488 53.945 62.7738 53.22 62.7738 52.42C62.7738 51.6 62.9488 50.875 63.2988 50.245C63.6588 49.615 64.1388 49.12 64.7388 48.76C65.3388 48.39 66.0188 48.205 66.7788 48.205C67.3888 48.205 67.9338 48.31 68.4138 48.52C68.8938 48.73 69.2988 49.02 69.6288 49.39C69.9588 49.75 70.2088 50.165 70.3788 50.635C70.5588 51.105 70.6488 51.605 70.6488 52.135C70.6488 52.265 70.6438 52.4 70.6338 52.54C70.6238 52.68 70.6038 52.81 70.5738 52.93H64.1088V51.58H69.6138L68.8038 52.195C68.9038 51.705 68.8688 51.27 68.6988 50.89C68.5388 50.5 68.2888 50.195 67.9488 49.975C67.6188 49.745 67.2288 49.63 66.7788 49.63C66.3288 49.63 65.9288 49.745 65.5788 49.975C65.2288 50.195 64.9588 50.515 64.7688 50.935C64.5788 51.345 64.5038 51.845 64.5438 52.435C64.4938 52.985 64.5688 53.465 64.7688 53.875C64.9788 54.285 65.2688 54.605 65.6388 54.835C66.0188 55.065 66.4488 55.18 66.9288 55.18C67.4188 55.18 67.8338 55.07 68.1738 54.85C68.5238 54.63 68.7988 54.345 68.9988 53.995L70.3788 54.67C70.2188 55.05 69.9688 55.395 69.6288 55.705C69.2988 56.005 68.8988 56.245 68.4288 56.425C67.9688 56.595 67.4638 56.68 66.9138 56.68ZM21.7331 78.5V67.325H23.1581L29.4281 75.98L28.7531 76.085V67.325H30.5081V78.5H29.0831L22.8581 69.785L23.5031 69.665V78.5H21.7331ZM36.572 78.68C35.792 78.68 35.077 78.495 34.427 78.125C33.787 77.755 33.277 77.25 32.897 76.61C32.517 75.97 32.327 75.245 32.327 74.435C32.327 73.615 32.517 72.89 32.897 72.26C33.277 71.62 33.787 71.12 34.427 70.76C35.067 70.39 35.782 70.205 36.572 70.205C37.372 70.205 38.087 70.39 38.717 70.76C39.357 71.12 39.862 71.62 40.232 72.26C40.612 72.89 40.802 73.615 40.802 74.435C40.802 75.255 40.612 75.985 40.232 76.625C39.852 77.265 39.342 77.77 38.702 78.14C38.062 78.5 37.352 78.68 36.572 78.68ZM36.572 77.105C37.052 77.105 37.477 76.99 37.847 76.76C38.217 76.53 38.507 76.215 38.717 75.815C38.937 75.405 39.047 74.945 39.047 74.435C39.047 73.925 38.937 73.47 38.717 73.07C38.507 72.67 38.217 72.355 37.847 72.125C37.477 71.895 37.052 71.78 36.572 71.78C36.102 71.78 35.677 71.895 35.297 72.125C34.927 72.355 34.632 72.67 34.412 73.07C34.202 73.47 34.097 73.925 34.097 74.435C34.097 74.945 34.202 75.405 34.412 75.815C34.632 76.215 34.927 76.53 35.297 76.76C35.677 76.99 36.102 77.105 36.572 77.105ZM45.8203 78.59C44.9703 78.59 44.3103 78.35 43.8403 77.87C43.3703 77.39 43.1353 76.715 43.1353 75.845V71.915H41.7103V70.385H41.9353C42.3153 70.385 42.6103 70.275 42.8203 70.055C43.0303 69.835 43.1353 69.535 43.1353 69.155V68.525H44.8303V70.385H46.6753V71.915H44.8303V75.77C44.8303 76.05 44.8753 76.29 44.9653 76.49C45.0553 76.68 45.2003 76.83 45.4003 76.94C45.6003 77.04 45.8603 77.09 46.1803 77.09C46.2603 77.09 46.3503 77.085 46.4503 77.075C46.5503 77.065 46.6453 77.055 46.7353 77.045V78.5C46.5953 78.52 46.4403 78.54 46.2703 78.56C46.1003 78.58 45.9503 78.59 45.8203 78.59ZM48.3894 78.5V70.385H50.0844V78.5H48.3894ZM48.3894 69.275V67.325H50.0844V69.275H48.3894ZM52.9812 78.5V71.915H51.4812V70.385H52.9812V69.965C52.9812 69.355 53.1062 68.845 53.3562 68.435C53.6062 68.015 53.9512 67.695 54.3912 67.475C54.8412 67.255 55.3562 67.145 55.9362 67.145C56.0462 67.145 56.1712 67.155 56.3112 67.175C56.4512 67.185 56.5662 67.2 56.6562 67.22V68.69C56.5762 68.67 56.4862 68.66 56.3862 68.66C56.2862 68.65 56.2062 68.645 56.1462 68.645C55.6962 68.645 55.3362 68.75 55.0662 68.96C54.7962 69.16 54.6612 69.495 54.6612 69.965V70.385H58.5462V71.915H54.6612V78.5H52.9812ZM57.7512 78.5V70.385H59.4312V78.5H57.7512ZM65.0764 78.68C64.2664 78.68 63.5464 78.495 62.9164 78.125C62.2964 77.745 61.8014 77.235 61.4314 76.595C61.0714 75.955 60.8914 75.23 60.8914 74.42C60.8914 73.62 61.0714 72.9 61.4314 72.26C61.7914 71.62 62.2864 71.12 62.9164 70.76C63.5464 70.39 64.2664 70.205 65.0764 70.205C65.6264 70.205 66.1414 70.305 66.6214 70.505C67.1014 70.695 67.5164 70.96 67.8664 71.3C68.2264 71.64 68.4914 72.035 68.6614 72.485L67.1764 73.175C67.0064 72.755 66.7314 72.42 66.3514 72.17C65.9814 71.91 65.5564 71.78 65.0764 71.78C64.6164 71.78 64.2014 71.895 63.8314 72.125C63.4714 72.345 63.1864 72.66 62.9764 73.07C62.7664 73.47 62.6614 73.925 62.6614 74.435C62.6614 74.945 62.7664 75.405 62.9764 75.815C63.1864 76.215 63.4714 76.53 63.8314 76.76C64.2014 76.99 64.6164 77.105 65.0764 77.105C65.5664 77.105 65.9914 76.98 66.3514 76.73C66.7214 76.47 66.9964 76.125 67.1764 75.695L68.6614 76.4C68.5014 76.83 68.2414 77.22 67.8814 77.57C67.5314 77.91 67.1164 78.18 66.6364 78.38C66.1564 78.58 65.6364 78.68 65.0764 78.68ZM72.6749 78.68C72.1249 78.68 71.6399 78.585 71.2199 78.395C70.8099 78.195 70.4899 77.925 70.2599 77.585C70.0299 77.235 69.9149 76.825 69.9149 76.355C69.9149 75.915 70.0099 75.52 70.1999 75.17C70.3999 74.82 70.7049 74.525 71.1149 74.285C71.5249 74.045 72.0399 73.875 72.6599 73.775L75.4799 73.31V74.645L72.9899 75.08C72.5399 75.16 72.2099 75.305 71.9999 75.515C71.7899 75.715 71.6849 75.975 71.6849 76.295C71.6849 76.605 71.7999 76.86 72.0299 77.06C72.2699 77.25 72.5749 77.345 72.9449 77.345C73.4049 77.345 73.8049 77.245 74.1449 77.045C74.4949 76.845 74.7649 76.58 74.9549 76.25C75.1449 75.91 75.2399 75.535 75.2399 75.125V73.04C75.2399 72.64 75.0899 72.315 74.7899 72.065C74.4999 71.805 74.1099 71.675 73.6199 71.675C73.1699 71.675 72.7749 71.795 72.4349 72.035C72.1049 72.265 71.8599 72.565 71.6999 72.935L70.2899 72.23C70.4399 71.83 70.6849 71.48 71.0249 71.18C71.3649 70.87 71.7599 70.63 72.2099 70.46C72.6699 70.29 73.1549 70.205 73.6649 70.205C74.3049 70.205 74.8699 70.325 75.3599 70.565C75.8599 70.805 76.2449 71.14 76.5149 71.57C76.7949 71.99 76.9349 72.48 76.9349 73.04V78.5H75.3149V77.03L75.6599 77.075C75.4699 77.405 75.2249 77.69 74.9249 77.93C74.6349 78.17 74.2999 78.355 73.9199 78.485C73.5499 78.615 73.1349 78.68 72.6749 78.68ZM82.7718 78.68C81.9618 78.68 81.2418 78.495 80.6118 78.125C79.9918 77.745 79.4968 77.235 79.1268 76.595C78.7668 75.955 78.5868 75.23 78.5868 74.42C78.5868 73.62 78.7668 72.9 79.1268 72.26C79.4868 71.62 79.9818 71.12 80.6118 70.76C81.2418 70.39 81.9618 70.205 82.7718 70.205C83.3218 70.205 83.8368 70.305 84.3168 70.505C84.7968 70.695 85.2118 70.96 85.5618 71.3C85.9218 71.64 86.1868 72.035 86.3568 72.485L84.8718 73.175C84.7018 72.755 84.4268 72.42 84.0468 72.17C83.6768 71.91 83.2518 71.78 82.7718 71.78C82.3118 71.78 81.8968 71.895 81.5268 72.125C81.1668 72.345 80.8818 72.66 80.6718 73.07C80.4618 73.47 80.3568 73.925 80.3568 74.435C80.3568 74.945 80.4618 75.405 80.6718 75.815C80.8818 76.215 81.1668 76.53 81.5268 76.76C81.8968 76.99 82.3118 77.105 82.7718 77.105C83.2618 77.105 83.6868 76.98 84.0468 76.73C84.4168 76.47 84.6918 76.125 84.8718 75.695L86.3568 76.4C86.1968 76.83 85.9368 77.22 85.5768 77.57C85.2268 77.91 84.8118 78.18 84.3318 78.38C83.8518 78.58 83.3318 78.68 82.7718 78.68ZM82.9368 82.025C82.6568 82.025 82.3618 81.98 82.0518 81.89C81.7418 81.8 81.4818 81.67 81.2718 81.5L81.6618 80.48C81.8118 80.6 81.9768 80.69 82.1568 80.75C82.3468 80.82 82.5318 80.855 82.7118 80.855C82.9318 80.855 83.1018 80.805 83.2218 80.705C83.3518 80.605 83.4168 80.47 83.4168 80.3C83.4168 80.1 83.2968 79.94 83.0568 79.82C82.8268 79.7 82.4668 79.615 81.9768 79.565L82.3068 78.35H83.3568L83.1918 78.995C83.7218 79.075 84.1268 79.24 84.4068 79.49C84.6968 79.74 84.8418 80.055 84.8418 80.435C84.8418 80.905 84.6668 81.285 84.3168 81.575C83.9668 81.875 83.5068 82.025 82.9368 82.025ZM90.3702 78.68C89.8202 78.68 89.3352 78.585 88.9152 78.395C88.5052 78.195 88.1852 77.925 87.9552 77.585C87.7252 77.235 87.6102 76.825 87.6102 76.355C87.6102 75.915 87.7052 75.52 87.8952 75.17C88.0952 74.82 88.4002 74.525 88.8102 74.285C89.2202 74.045 89.7352 73.875 90.3552 73.775L93.1752 73.31V74.645L90.6852 75.08C90.2352 75.16 89.9052 75.305 89.6952 75.515C89.4852 75.715 89.3802 75.975 89.3802 76.295C89.3802 76.605 89.4952 76.86 89.7252 77.06C89.9652 77.25 90.2702 77.345 90.6402 77.345C91.1002 77.345 91.5002 77.245 91.8402 77.045C92.1902 76.845 92.4602 76.58 92.6502 76.25C92.8402 75.91 92.9352 75.535 92.9352 75.125V73.04C92.9352 72.64 92.7852 72.315 92.4852 72.065C92.1952 71.805 91.8052 71.675 91.3152 71.675C90.8652 71.675 90.4702 71.795 90.1302 72.035C89.8002 72.265 89.5552 72.565 89.3952 72.935L87.9852 72.23C88.1352 71.83 88.3802 71.48 88.7202 71.18C89.0602 70.87 89.4552 70.63 89.9052 70.46C90.3652 70.29 90.8502 70.205 91.3602 70.205C92.0002 70.205 92.5652 70.325 93.0552 70.565C93.5552 70.805 93.9402 71.14 94.2102 71.57C94.4902 71.99 94.6302 72.48 94.6302 73.04V78.5H93.0102V77.03L93.3552 77.075C93.1652 77.405 92.9202 77.69 92.6202 77.93C92.3302 78.17 91.9952 78.355 91.6152 78.485C91.2452 78.615 90.8302 78.68 90.3702 78.68ZM92.3952 68.9C92.1252 68.9 91.9002 68.855 91.7202 68.765C91.5502 68.675 91.4002 68.575 91.2702 68.465C91.1502 68.355 91.0252 68.255 90.8952 68.165C90.7752 68.075 90.6302 68.03 90.4602 68.03C90.2902 68.03 90.1602 68.095 90.0702 68.225C89.9802 68.355 89.9352 68.56 89.9352 68.84H88.6002C88.6002 68.1 88.7652 67.555 89.0952 67.205C89.4252 66.845 89.8352 66.665 90.3252 66.665C90.6052 66.665 90.8302 66.71 91.0002 66.8C91.1802 66.88 91.3352 66.98 91.4652 67.1C91.5952 67.21 91.7202 67.31 91.8402 67.4C91.9702 67.48 92.1152 67.52 92.2752 67.52C92.4652 67.52 92.6002 67.45 92.6802 67.31C92.7702 67.17 92.8152 66.975 92.8152 66.725H94.1352C94.1352 67.425 93.9652 67.965 93.6252 68.345C93.2952 68.715 92.8852 68.9 92.3952 68.9ZM100.527 78.68C99.7471 78.68 99.0321 78.495 98.3821 78.125C97.7421 77.755 97.2321 77.25 96.8521 76.61C96.4721 75.97 96.2821 75.245 96.2821 74.435C96.2821 73.615 96.4721 72.89 96.8521 72.26C97.2321 71.62 97.7421 71.12 98.3821 70.76C99.0221 70.39 99.7371 70.205 100.527 70.205C101.327 70.205 102.042 70.39 102.672 70.76C103.312 71.12 103.817 71.62 104.187 72.26C104.567 72.89 104.757 73.615 104.757 74.435C104.757 75.255 104.567 75.985 104.187 76.625C103.807 77.265 103.297 77.77 102.657 78.14C102.017 78.5 101.307 78.68 100.527 78.68ZM100.527 77.105C101.007 77.105 101.432 76.99 101.802 76.76C102.172 76.53 102.462 76.215 102.672 75.815C102.892 75.405 103.002 74.945 103.002 74.435C103.002 73.925 102.892 73.47 102.672 73.07C102.462 72.67 102.172 72.355 101.802 72.125C101.432 71.895 101.007 71.78 100.527 71.78C100.057 71.78 99.6321 71.895 99.2521 72.125C98.8821 72.355 98.5871 72.67 98.3671 73.07C98.1571 73.47 98.0521 73.925 98.0521 74.435C98.0521 74.945 98.1571 75.405 98.3671 75.815C98.5871 76.215 98.8821 76.53 99.2521 76.76C99.6321 76.99 100.057 77.105 100.527 77.105Z" fill="white"/>
</svg>
